# xmcd
#
# Track frame offsets: 
#        150
#        6252
#        23658
#        53035
#        72091
#        92661
#        100886
#        113304
#        134860
#        153103
#        195200
#        212875
#        234048
#        255537
#        276135
#        296751
#        322519
#
# Disc length: 4574 seconds
#
# Revision: 0
# Processed by: cddbd v1.5.2PL0 Copyright (c) Steve Scherf et al.
# Submitted via: ExactAudioCopyFreeDBPlugin 1.0
#
DISCID=d611dc11
DTITLE=Helene Fischer - Best of Live - So wie ich bin
DYEAR=2010
DGENRE=Schlager
TTITLE0=So Wie Ich Bin - Opening (Live 2010)
TTITLE1=Mitten Im Paradies (Live 2010)
TTITLE2=Du Fängst Mich Auf Und Lässt Mich Fliegen (Live 2010)
TTITLE3=Ich Brauch' Das Gefühl (Live 2010)
TTITLE4=Nicht Von Dieser Welt (Live 2010)
TTITLE5=Von Null Auf Sehnsucht (Live 2010)
TTITLE6=Einmal Berührt, Für Immer Verführt (Live 2010)
TTITLE7=Lieb' Mich (Live 2010)
TTITLE8=Wolkenträumer (Live 2010)
TTITLE9=You Raise Me Up (Live 2010)
TTITLE10=Lass Mich In Dein Leben (Live 2010)
TTITLE11=Hab' Den Himmel Berührt (Live 2010)
TTITLE12=Vergeben, Vergessen Und Wieder Vertrau'n (Live 2010)
TTITLE13=Der Ewige Kreis (Aus "König Der Löwen") (Live 2010)
TTITLE14=Er Lebt In Dir (Aus "König Der Löwen") (Live 2010)
TTITLE15=Can You Feel The Love Tonight (Aus "König Der Löwen") (Live 2
TTITLE15=010)
TTITLE16=Unbekannter Titel
EXTD=
EXTT0=
EXTT1=
EXTT2=
EXTT3=
EXTT4=
EXTT5=
EXTT6=
EXTT7=
EXTT8=
EXTT9=
EXTT10=
EXTT11=
EXTT12=
EXTT13=
EXTT14=
EXTT15=
EXTT16=
PLAYORDER=
